<svg width="32" height="88" viewBox="0 0 32 88" fill="none" xmlns="http://www.w3.org/2000/svg">
<g clip-path="url(#clip0_2_3433)">
<path d="M22.1989 27.3428L18.6989 23.8428C19.5806 22.763 20.0138 21.3857 19.9088 19.9956C19.8039 18.6055 19.1689 17.3088 18.1351 16.3736C17.1013 15.4383 15.7477 14.936 14.3541 14.9704C12.9604 15.0048 11.6333 15.5733 10.6469 16.5584C9.6605 17.5436 9.09028 18.87 9.05408 20.2636C9.01788 21.6572 9.51847 23.0114 10.4524 24.0464C11.3863 25.0814 12.6821 25.7181 14.0721 25.8248C15.4621 25.9315 16.8399 25.5001 17.9209 24.6198L21.4209 28.1198C21.472 28.1709 21.5326 28.2114 21.5994 28.2391C21.6661 28.2667 21.7377 28.281 21.8099 28.281C21.8822 28.281 21.9537 28.2667 22.0204 28.2391C22.0872 28.2114 22.1478 28.1709 22.1989 28.1198C22.25 28.0687 22.2905 28.0081 22.3182 27.9414C22.3458 27.8746 22.36 27.8031 22.36 27.7308C22.36 27.6586 22.3458 27.5871 22.3182 27.5203C22.2905 27.4536 22.25 27.3929 22.1989 27.3418V27.3428ZM10.1779 20.4178C10.1781 19.5637 10.4316 18.7287 10.9063 18.0186C11.381 17.3085 12.0556 16.7551 12.8448 16.4283C13.634 16.1016 14.5024 16.0162 15.3401 16.1829C16.1779 16.3497 16.9473 16.7611 17.5513 17.3652C18.1552 17.9693 18.5664 18.7388 18.733 19.5766C18.8996 20.4144 18.814 21.2827 18.4871 22.0719C18.1601 22.861 17.6065 23.5355 16.8963 24.01C16.1861 24.4846 15.3511 24.7378 14.4969 24.7378C13.3516 24.7368 12.2535 24.2813 11.4437 23.4713C10.634 22.6613 10.1787 21.5632 10.1779 20.4178Z" fill="white"/>
<path d="M22.1989 71.5928L18.6989 68.0928C19.5806 67.013 20.0138 65.6357 19.9088 64.2456C19.8039 62.8555 19.1689 61.5588 18.1351 60.6236C17.1013 59.6883 15.7477 59.186 14.3541 59.2204C12.9604 59.2548 11.6333 59.8233 10.6469 60.8084C9.6605 61.7936 9.09028 63.12 9.05408 64.5136C9.01788 65.9072 9.51847 67.2614 10.4524 68.2964C11.3863 69.3314 12.6821 69.9681 14.0721 70.0748C15.4621 70.1815 16.8399 69.7501 17.9209 68.8698L21.4209 72.3698C21.5241 72.473 21.664 72.531 21.8099 72.531C21.9558 72.531 22.0957 72.473 22.1989 72.3698C22.3021 72.2667 22.36 72.1267 22.36 71.9808C22.36 71.8349 22.3021 71.695 22.1989 71.5918V71.5928ZM10.1779 64.6678C10.1781 63.8137 10.4316 62.9787 10.9063 62.2686C11.381 61.5585 12.0556 61.0051 12.8448 60.6783C13.634 60.3516 14.5024 60.2662 15.3401 60.4329C16.1779 60.5997 16.9473 61.0111 17.5513 61.6152C18.1552 62.2193 18.5664 62.9888 18.733 63.8266C18.8996 64.6644 18.814 65.5327 18.4871 66.3219C18.1601 67.111 17.6065 67.7855 16.8963 68.26C16.1861 68.7346 15.3511 68.9878 14.4969 68.9878C13.3516 68.9868 12.2535 68.5313 11.4437 67.7213C10.634 66.9114 10.1787 65.8132 10.1779 64.6678Z" fill="#86868B"/>
</g>
<defs>
<clipPath id="clip0_2_3433">
<rect width="15" height="88" fill="white" transform="translate(8.21875)"/>
</clipPath>
</defs>
</svg>
